<svg width="438" height="140" viewBox="0 0 438 140" fill="none" xmlns="http://www.w3.org/2000/svg">
<path d="M425.513 48.1177C425.521 48.1369 425.529 48.1515 425.536 48.1512C425.529 48.1515 425.521 48.1369 425.513 48.1177ZM425.492 48.0602C425.5 48.0747 425.505 48.0931 425.511 48.1105C425.505 48.0931 425.5 48.0738 425.492 48.0602ZM415.465 49.1494C415.384 49.1345 415.303 49.1177 415.213 49.1013C415.105 49.1465 415.005 49.1924 414.904 49.2392C415.005 49.1924 415.105 49.1465 415.206 49.0997C415.303 49.1177 415.384 49.1345 415.465 49.1494V49.1494ZM40.3085 73.4005C40.3085 73.3995 40.3109 73.3994 40.3109 73.3985C40.4485 73.4458 40.5724 73.5195 40.7255 73.5218C40.5699 73.5195 40.446 73.444 40.3085 73.4005V73.4005ZM387.488 65.5857C388.227 65.653 389.227 65.3479 390.04 65.2416L390.038 65.2426C389.225 65.348 388.224 65.6531 387.488 65.5857ZM414.016 78.1661C413.946 78.1184 413.893 78.0701 413.855 78.0233C413.893 78.0701 413.946 78.1184 414.016 78.1661ZM413.853 78.0206C413.744 77.8771 413.787 77.7284 414.091 77.5759C413.787 77.7284 413.744 77.8771 413.853 78.0206ZM410.568 77.4282C409.913 77.683 409.261 77.9387 408.603 78.1936C409.261 77.9387 409.913 77.683 410.568 77.4282ZM178.941 113.342C178.934 113.344 178.929 113.344 178.922 113.346C178.769 113.346 178.616 113.348 178.463 113.35C178.62 113.348 178.781 113.346 178.941 113.342ZM346.313 26.5393C329.808 27.4681 313.263 28.277 296.819 29.3704C283.595 30.2512 270.432 31.5382 257.102 31.6933C232.301 31.9811 207.476 32.6565 182.685 33.0522C178.577 33.1172 179.004 34.8662 173.907 34.3825C169.386 33.9531 163.278 35.0594 157.637 34.8418C154.407 34.7169 150.779 35.2991 147.39 35.3155C131.61 35.3875 116.623 36.6013 101.934 39.038C96.5314 39.9342 93.5053 42.1828 86.148 42.017C84.1324 41.9706 83.1202 43.1052 85.265 43.6796C85.9563 43.866 87.4945 43.7292 88.7209 43.711C88.7112 43.7122 88.7015 43.7126 88.6893 43.7139C87.4423 43.9132 86.1285 44.0815 84.9975 44.3381C84.7299 44.3987 84.8601 44.8118 85.1815 44.9798C86.4348 45.6317 92.7024 45.6871 86.8839 47.1717C86.1274 47.3651 87.6964 47.4985 88.5163 47.6056C92.0031 48.059 95.414 48.5676 98.8104 49.0794C99.5013 49.1825 99.8366 49.4769 98.6991 49.5366C95.563 49.6973 93.9722 50.529 91.7733 51.0401C86.4448 52.279 79.8115 52.926 73.5877 53.6854C65.8321 54.6305 57.8312 54.9135 49.8099 55.0196C48.6952 55.0341 47.2396 55.1014 47.1006 55.6011C46.9401 56.1858 48.4175 56.3407 49.8171 56.3474C52.5387 56.3604 55.307 56.2433 58.0242 56.2722C63.5485 56.3317 66.4873 58.2904 72.556 58.0599C72.9175 58.0461 75.6153 57.9267 75.1118 58.7197C74.6914 59.3814 73.0587 59.3094 71.8382 59.4301C67.656 59.8428 68.4467 61.0577 67.2907 61.9574C68.9694 61.879 70.6455 61.796 72.3268 61.7221C73.3627 61.6769 74.4363 61.5943 75.4264 61.6329C75.8667 61.6499 76.1454 61.9239 76.498 62.0807C76.0348 62.1802 75.5716 62.2797 75.1084 62.3782C75.0744 62.3794 75.0429 62.3804 75.0089 62.3815C74.5866 62.3963 74.1595 62.4113 73.7348 62.4253C73.6936 62.4267 73.6499 62.4281 73.6086 62.4295L73.6602 62.4472C73.1991 62.4615 72.7355 62.4768 72.2744 62.491L72.3031 62.4799C71.1714 62.5681 69.9991 62.7483 68.9149 62.7304C63.5477 62.6472 60.4824 63.9993 60.0556 65.2045C59.4774 66.8274 64.9087 65.8322 67.5395 66.1138C69.4949 66.3233 71.6515 66.3707 73.7181 66.4905C72.3102 67.2653 69.9921 66.816 68.2003 67.0731C67.3636 67.1932 66.5553 67.3614 65.695 67.4277C63.0995 67.627 60.3783 67.2549 57.851 67.8287C59.8372 68.6045 63.0116 68.4249 65.6841 68.646C67.1995 68.7719 68.3816 69.0346 68.6579 69.5317C68.7354 69.6717 67.7063 70.0702 67.2423 70.0726C59.4256 70.1228 52.5549 72.7786 44.2553 71.5944C42.8054 71.3886 40.9128 71.3898 39.2158 71.4282C36.5453 71.4884 36.0043 71.956 37.3434 72.6328C39.7499 73.851 41.5882 75.2971 48.4739 74.9379C46.0181 75.4686 43.0812 75.1878 43.18 75.8999C43.2921 76.7217 46.1676 76.912 48.2429 77.2185C48.7824 77.2979 49.253 77.4212 49.7545 77.524C49.1742 77.6107 48.5957 77.7519 48.0109 77.773C46.0113 77.8436 44.1202 77.3728 42.0284 77.8184C43.9229 77.9494 45.8175 78.0813 47.712 78.2123C48.3768 78.258 49.0771 78.2784 49.6968 78.3552C50.3677 78.4395 50.9674 78.5752 51.5979 78.6877C50.8539 78.7437 50.0589 78.8754 49.3728 78.8452C43.4387 78.5901 39.022 79.7786 34.3619 80.8039C32.8254 81.1414 33.4806 81.4882 34.0825 81.6164C36.1672 82.0623 38.7586 82.2564 41.2336 81.9388C42.9973 81.7123 41.6572 81.4464 40.8135 81.2799C45.1874 80.1964 48.0635 81.5083 51.6271 81.7102C51.812 81.7199 51.9949 82.1081 51.8069 82.1541C48.7534 82.9071 47.4172 81.7259 45.0303 81.6953C44.8408 81.6932 44.6221 81.7661 44.4168 81.8044L44.3688 81.8226C44.3184 81.8418 44.2273 81.8772 44.2273 81.8772C43.2259 82.8255 45.3757 82.6658 47.0359 82.7648C48.034 82.8244 49.7005 83.1147 49.6177 83.2544C49.3209 83.7593 47.8008 83.7816 46.5055 83.7725C42.5662 83.7422 38.4029 83.9201 34.7389 83.6197C27.6717 83.04 29.8143 84.1383 30.0088 85.4701C30.1347 86.3423 32.0701 85.8714 32.6648 86.2969C30.0575 86.5799 27.4986 86.8595 24.9397 87.1363C20.6595 87.5976 20.0767 87.9037 21.7223 88.8101C21.841 88.8747 21.8004 89.0435 21.6439 89.0848C17.6746 90.1364 22.2182 89.7026 22.7612 89.7402C24.8555 89.8878 27.0599 89.9132 29.1989 90.0158C29.6369 90.0375 29.975 90.1966 30.3596 90.2922C29.976 90.3752 29.6149 90.475 29.2089 90.5411C26.5649 90.9651 26.6774 92.829 21.9024 92.1377C22.0568 92.2529 22.1037 92.4244 22.3824 92.4754C24.3917 92.8479 25.4311 93.6428 28.3542 93.652C29.6638 93.6561 31.4038 94.0374 29.4777 94.6423C28.1046 95.0734 23.5701 95.1192 27.922 96.0947C28.2622 96.1705 26.0985 96.3482 25.0813 96.2993C20.6817 96.0898 16.3101 95.8424 11.9106 95.6338C10.8326 95.5833 9.37831 95.4665 8.84223 95.9348C8.53768 96.204 8.90465 96.575 9.26123 96.8529C9.6727 97.1744 10.4057 97.4455 11.0008 97.7378C9.76449 97.748 8.5246 97.7231 7.29463 97.7785C5.59399 97.8539 3.90262 97.9892 2.208 98.0996C3.62577 98.214 5.01843 98.3772 6.47545 98.4292C7.83758 98.4769 8.58019 98.6736 9.44131 99.0006C11.4809 99.7746 13.24 100.735 17.1311 100.706C17.0043 100.762 16.8774 100.819 16.7505 100.875C15.4936 100.924 13.4361 100.639 14.2065 101.531C12.0584 101.522 9.91465 101.495 7.76265 101.513C6.36601 101.524 4.51279 101.983 5.88212 102.176C8.23517 102.508 7.72997 103.101 8.517 103.613C11.0818 105.283 9.7757 105.979 3.90885 105.921C3.79351 105.96 3.67576 105.999 3.55554 106.037C3.73487 106.392 3.65347 106.798 4.13225 107.097C7.2281 109.032 3.99683 112.131 12.9575 112.955C14.6658 113.113 16.9838 112.676 18.8405 112.764C26.844 113.149 34.9441 113.37 42.9396 113.806C56.387 114.537 70.2233 114.83 84.002 115.072C95.836 115.28 107.813 115.17 119.73 115.182C127.31 115.19 135.084 115.59 142.442 115.049C152.568 114.305 162.783 114.912 172.634 113.708C176.336 113.257 179.383 115.031 182.918 113.556C187.907 112.625 193.165 112.958 198.303 112.783C215.781 112.184 233.263 111.622 250.741 111.046C250.744 111.342 250.746 111.637 250.749 111.934C246.002 112.09 241.252 112.234 236.508 112.418C235.877 112.442 235.265 112.677 234.643 112.815C235.171 112.919 235.666 113.108 236.232 113.116C241.123 113.187 246.218 113.285 250.903 113.222C259.85 113.104 268.96 112.067 277.954 111.318C279.037 111.229 281.741 111.514 281.369 110.76C281.147 110.311 278.717 110.417 277.07 110.502C269.524 110.893 261.973 111.271 254.425 111.655C257.772 111.178 260.507 110.046 264.404 110.402L264.479 110.421C264.44 110.411 264.404 110.402 264.404 110.403C264.146 110.463 263.888 110.525 263.63 110.587C263.769 110.624 263.907 110.66 264.044 110.697C264.216 110.611 264.386 110.527 264.555 110.441C267.151 110.973 270.08 110.742 272.834 110.459C279.642 109.758 286.306 108.785 293.182 108.258C307.191 107.185 321.303 106.334 335.371 105.391C335.45 105.362 335.53 105.331 335.611 105.302C344.171 104.585 352.739 103.888 361.279 103.133C362.526 103.023 363.944 102.985 364.803 102.361C367.816 100.159 372.948 98.6504 380.115 97.9709C381.946 97.7977 382.617 97.2962 382.948 96.8587C383.385 96.2714 381.408 96.5198 380.524 96.3925C379.812 96.2901 378.681 96.2552 379.345 95.9205C379.84 95.6719 380.955 95.4381 381.845 95.3865C385.176 95.1925 388.718 95.2341 391.536 94.436C393.207 93.9636 395.347 93.3517 395.638 92.7646C395.905 92.2338 392.91 92.4575 391.456 92.2759C388.733 91.9343 385.876 91.5648 386.007 90.3934C386.11 89.4627 389.079 89.6879 390.64 89.3523C393.627 88.7088 397.004 88.2764 400.04 87.6544C402.415 87.1671 404.819 86.5475 401.852 85.6559C401.942 85.863 401.894 86.034 401.724 86.1756C401.894 86.034 401.942 85.863 401.852 85.6559C401.847 85.6404 401.854 85.629 401.846 85.6126C401.608 85.4677 401.37 85.3229 401.132 85.178L401.074 85.1864C406.585 82.9947 406.642 82.9752 408.708 83.5763C413.34 82.6592 418.775 81.9888 422.4 80.7606C426.829 79.2626 420.355 78.482 419.045 77.3526C418.132 76.5636 415.922 77.1741 414.274 77.5301C415.228 76.9869 417.148 77.0198 418.436 76.7312C420.407 76.2897 425.056 76.2012 422.476 74.8036C422.481 74.8026 422.486 74.8005 422.493 74.7994C424.539 74.4331 425.911 73.8992 427.079 73.2296C431.667 70.6 425.465 68.8507 423.935 66.7272C423.204 65.7119 421.068 66.0544 418.829 66.3901C417.886 66.5313 417.52 67.3569 416.291 66.8541C414.939 66.3017 417.172 66.0958 418.281 65.9131C422.747 65.1764 418.059 64.1749 419.77 63.3736C419.33 63.3594 418.837 63.2914 418.459 63.3399C411.46 64.235 405.307 63.3901 398.961 62.9348C399.229 62.0875 401.585 62.1366 403.148 61.9352C410.532 60.9839 417.97 60.0864 425.389 59.171C425.389 59.171 425.358 59.1794 425.356 59.1795C430.379 58.4966 432.325 56.8657 435.719 55.6803C434.866 55.6871 433.945 55.7554 433.175 55.6855C426.722 55.0948 421.43 53.8967 416.341 52.5911C414.837 52.2038 410.795 52.3036 412.475 51.3154C414.491 50.1282 416.285 48.4598 422.107 48.6955C424.805 48.8047 427.128 48.4376 429.512 48.0906C432.126 47.7102 431.487 47.0621 430.606 46.5794C429.649 46.0519 427.766 46.1417 426.412 46.5593C422.41 47.7943 417.415 47.858 412.679 48.2121C411.833 48.2761 410.877 48.0818 409.97 48.0061C410.678 47.8171 411.369 47.6185 412.099 47.4381C413.073 47.1968 415.154 47.1625 414.657 46.6699C414.403 46.4191 412.357 46.4023 411.116 46.2831C409.427 46.1213 406.209 45.9154 406.271 45.8097C407.056 44.4327 403.63 44.4243 401.464 44.4383C396.909 44.4699 398.143 42.7718 395.064 42.4484C396.627 41.5955 399.18 41.8556 401.356 41.696C402.042 41.6456 402.754 41.65 403.44 41.5996C403.854 41.5693 404.243 41.4787 404.641 41.4147C404.205 41.355 403.724 41.2191 403.329 41.2497C399.65 41.5393 400.864 39.8715 397.891 39.8982C398.933 39.1771 401.087 39.4301 402.703 39.2149C404.016 39.0393 405.45 38.9772 406.739 38.7876C407.365 38.6948 408.035 38.4377 408.2 38.2295C408.331 38.0688 407.702 37.8655 407.41 37.6818C404.104 38.4478 402.412 36.8071 399.123 37.3431C398.094 37.5112 396.836 37.3138 396.66 36.8365C400.496 36.9017 399.388 34.9837 403.338 35.0266C400.72 35.0073 398.207 35.105 395.696 35.1627C395.072 35.1768 394.456 35.061 393.835 35.0056C394.515 34.4251 396.244 34.6949 397.2 34.4903C387.981 34.4479 378.812 35.3451 369.559 35.8943C367.539 36.0145 365.07 36.5086 363.254 35.8244C360.887 36.391 357.51 36.4523 356.784 36.2467C352.33 34.9877 356.128 32.0436 348.328 31.5084C352.213 30.5595 348.767 28.8878 349.382 28.7593C353.964 27.8041 348.332 27.5667 348.954 26.9039C349.444 26.3806 347.513 26.4711 346.313 26.5393" fill="#FB46F4"/>
<path d="M82.7 23.5L81.5 24.7L81.1 24.2L82.2 23.1L82.7 23.5ZM82.3 47.2V45.5H81.5V47.2H82.3ZM106.3 93.2C106.3 93.5333 106.1 93.9 105.7 94.3C105.3 94.6333 105.1 94.9667 105.1 95.3C105.1 96.7667 105.2 98.1667 105.4 99.5C105.667 100.767 105.8 102.267 105.8 104C105.533 104 105.133 104.233 104.6 104.7C104 105.367 103.633 106.033 103.5 106.7C103.433 106.7 103.3 106.633 103.1 106.5C102.967 106.367 102.7 106.3 102.3 106.3C101.9 106.3 99.2667 107.667 94.4 110.4C89.5333 113.133 86.9333 114.5 86.6 114.5C85.4667 114.5 83.8333 114.9 81.7 115.7C81.5667 115.767 81.2 115.733 80.6 115.6C80.0667 115.467 79.6333 115.4 79.3 115.4C79.0333 115.4 78.9 115.467 78.9 115.6C78.9 115.667 78.9333 115.733 79 115.8C79.0667 115.933 79.1 116.033 79.1 116.1C79.0333 116.233 78.8667 116.3 78.6 116.3H77.3C77.5 115.7 77.4667 114.967 77.2 114.1C76.9333 113.233 76.8 112.667 76.8 112.4C76.8 111.2 77.4 110.3 78.6 109.7C78 109.033 77.4333 108.967 76.9 109.5C77.1 108.967 77.0667 108.133 76.8 107C76.5333 105.933 76.4 105.3 76.4 105.1V97.8C79.6 96.6667 82.6667 95.8333 85.6 95.3C85.8 95.0333 86.0333 94.7667 86.3 94.5C86.6333 94.1667 87.0333 94 87.5 94C87.7667 94 88.0333 94.1667 88.3 94.5C88.4333 93.7 88.5667 93.3 88.7 93.3C88.7 93.3667 88.7333 93.4 88.8 93.4C88.8667 93.3333 88.9667 92.9333 89.1 92.2C88.3667 91.6 87.0667 90.8333 85.2 89.9C85.0667 88.8333 84.7667 87.3333 84.3 85.4C84.1667 85.5333 83.8333 85.1667 83.3 84.3C82.7667 83.3667 82.3333 82.8667 82 82.8C81.7333 82.6667 81.4 82.3667 81 81.9C80.6 81.3667 80.2 81.1 79.8 81.1C79.6 81.1 79.0333 81.2333 78.1 81.5C77.1667 81.7 76.4333 81.8 75.9 81.8C75.3667 81.8 74.9333 81.7333 74.6 81.6C74.3333 81.4 74.1333 81.1667 74 80.9H73.4C73.4667 80.7667 73.5 80.6 73.5 80.4C73.3667 80.4 73.2667 80.4333 73.2 80.5C73 80.5667 72.9 80.4333 72.9 80.1C72.9 79.3667 73.3333 78.6 74.2 77.8C74.1333 77.6 74.0333 77.3 73.9 76.9C73.5667 76.8333 73.2667 76.9333 73 77.2C73.2 76.6667 73.1667 75.9 72.9 74.9C72.6333 74.6333 72.2667 74.3333 71.8 74L72 74.3C71.8 74.4333 70.5333 74.5 68.2 74.5C67.7333 74.5 67.3667 74.3333 67.1 74C66.8333 73.6 66.6667 73.4 66.6 73.4C67.2667 72.5333 68.4333 71.3667 70.1 69.9C70.6333 71.5667 71.1667 72.8667 71.7 73.8V72.4L72.5 71.6V70.8C71.7 70.8667 71.3 70.6 71.3 70C71.3 69.6 71.4667 69.0667 71.8 68.4C72.2 67.6667 72.4333 67.1667 72.5 66.9V65.5C73.7667 65.5667 75.2667 65.5667 77 65.5C77.4667 65.3 78.1667 64.8333 79.1 64.1C79.7667 63.5 80.4 63.2 81 63.2C81.4 62.8 81.6 62.1333 81.6 61.2C81.6 60.9333 81.6 60.6667 81.6 60.4C81.8667 60.1333 82.3667 60 83.1 60C83.3 61.2667 83.3333 62.1 83.2 62.5C83.6 61.9667 84.0667 61.7 84.6 61.7C84.8667 61.7 85.1667 61.8667 85.5 62.2C85.5667 60.6667 85.8 58.2 86.2 54.8C85.4667 54.2667 84.1667 53.5333 82.3 52.6C82.1667 51.8667 81.8667 50.7 81.4 49.1C80.9333 49.5667 80.1667 49.6667 79.1 49.4C78.7667 49.3333 78.2667 49.4333 77.6 49.7C77 49.9 76.5333 50 76.2 50C75.6 50 74.4333 49.4 72.7 48.2C72.2333 48 71.8333 47.2 71.5 45.8C71.7 45.6 72 45.3 72.4 44.9C72.2 43.6333 72 42.3667 71.8 41.1C71.4667 39.5 70.8333 38.3333 69.9 37.6V36L71 35L71.8 35.5C71.8 35.4333 71.8333 35.2333 71.9 34.9C72.0333 34.5 72.1 34.0333 72.1 33.5C71.5667 32.9667 71.2333 32.7 71.1 32.7C70.9 32.9 70.8333 33.2 70.9 33.6C71.0333 34.2 71.1 34.5 71.1 34.5C69.9667 34.5 69.4 34.2 69.4 33.6C69.4 33.2667 69.6333 32.3 70.1 30.7C70.6333 29.1 70.9 27.9333 70.9 27.2C70.9 26.9333 70.8667 26.7 70.8 26.5C71.5333 26.3 72.7333 26.3 74.4 26.5C76.4667 26.7 77.7333 26.8 78.2 26.8C78.6 26.4 78.7667 25.7667 78.7 24.9C78.7 24.6333 78.7 24.3667 78.7 24.1C78.9667 23.8333 79.4667 23.7 80.2 23.7C80.4667 25.3 80.3333 26.4333 79.8 27.1C80.4 27.8333 81.1 28.2 81.9 28.2C82.3 28.2 82.5333 28.2667 82.6 28.4C82.6667 28.5333 82.8667 28.6 83.2 28.6C83.8 28.6 84.1 28.3 84.1 27.7C84.9667 29.1667 87.1333 30.2333 90.6 30.9C90.8667 31.1667 90.7667 31.5667 90.3 32.1C91.3667 32.8333 92.8 34.1 94.6 35.9C94.9333 35.7667 95.1 35.5333 95.1 35.2C95.1 35.4667 95.8333 35.7667 97.3 36.1C97.9667 37.2333 98.9667 38.4667 100.3 39.8C100.167 39.9333 99.9333 40.1 99.6 40.3C99.3333 40.4333 99.1 40.5667 98.9 40.7C100.633 42.3 101.8 43.8 102.4 45.2C102.267 45.5333 102.2 46.7667 102.2 48.9C102.2 51.3667 102.4 53.1 102.8 54.1C103.267 55.1 103.5 55.7 103.5 55.9C103.5 56.2333 103.267 56.6 102.8 57C102.4 57.3333 102.2 57.6667 102.2 58C102.2 59.4667 102.333 61.7 102.6 64.7C102.867 67.6333 103 69.9667 103 71.7C102.267 71.7 101.567 72.3 100.9 73.5C101.567 74.3667 102.333 75.2333 103.2 76.1C103 76.2333 102.733 76.4 102.4 76.6C102.133 76.7333 101.933 76.8667 101.8 77C103.533 78.6 104.7 80.1 105.3 81.5C105.167 81.8333 105.1 83.0667 105.1 85.2C105.1 87.6667 105.3 89.5667 105.7 90.9C106.1 92.2333 106.3 93 106.3 93.2ZM79.7 51.4C78.8333 50.4667 78.7 50 79.3 50C79.5667 50.6 79.7 51.0667 79.7 51.4ZM54.9 89.1L54.6 89.7L53.4 89.1L53.7 88.5L54.9 89.1ZM51.6 89C50.6667 89 49.8 89.1667 49 89.5C49 88.3667 49.0333 87.7667 49.1 87.7C49.9667 87.7 50.8 88.1333 51.6 89ZM48 78.4H45.8V77.6H48V78.4ZM43.8 58.2C43.6 58 43.3 58 42.9 58.2C42.5 58.3333 42.1 58.4667 41.7 58.6C42.1 58.7333 42.6333 58.7 43.3 58.5C43.9667 58.3 44.1333 58.2 43.8 58.2ZM62.1 110.9C62.1 110.433 61.9333 109.867 61.6 109.2C61.2667 108.533 61.0667 108.1 61 107.9C61.3333 103.1 61.5 100.533 61.5 100.2C61.5 99.4667 61.2667 98.5 60.8 97.3C60.2667 95.7 59.9333 94.7333 59.8 94.4C60.0667 94.1333 60.5 93.8 61.1 93.4C61.5 93.2 61.6667 93.0333 61.6 92.9C60.8 90.9667 60.4 88.9 60.4 86.7C60.4 85.3 60.5667 83.9 60.9 82.5C60.6333 81.9667 60.4667 80.3 60.4 77.5C60.4 76.0333 60.3667 75.1333 60.3 74.8C60.1667 74.0667 59.8667 73.2667 59.4 72.4V56.5C59.4 56.1667 59.5333 55.6333 59.8 54.9C60.0667 54.1667 60.1667 53.6667 60.1 53.4C59.7 49.9333 59.2 45.2333 58.6 39.3C58.8667 38.1667 59.0667 36.6667 59.2 34.8C59 33.4 58.6 31.7333 58 29.8L58.5 29.3C57.9667 28.4333 56.4667 27.9333 54 27.8C51.5333 27.6 50.0667 27.2 49.6 26.6C47.0667 26.8667 43.7 26.8 39.5 26.4C39.5 26.1333 39.4 27.7 39.2 31.1C39.0667 34.5 39 38.8 39 44C39 44 39.3 44.1333 39.9 44.4C40.5 44.6667 40.8 45.0333 40.8 45.5C40.8 46.1667 40.5 46.1667 39.9 45.5C39.9 46.0333 39.9667 47.2 40.1 49C40.2333 50.4667 40.2333 51.6333 40.1 52.5C40.1 52.7667 40 53.3 39.8 54.1C39.6 54.8333 39.5 55.3667 39.5 55.7C39.5 56.0333 39.7 56.4667 40.1 57C40.5667 57.5333 40.8 57.8333 40.8 57.9C40.4667 58.1667 40.1667 58.3667 39.9 58.5C40.1667 58.5 40.5 58.4 40.9 58.2C40.9667 58.3333 41 58.4667 41 58.6C41 58.7333 40.6667 59.2667 40 60.2C40.3333 62.7333 40.2667 65.1667 39.8 67.5C39.8 67.6333 40.0667 68.1333 40.6 69C40.6 69.0667 40.4333 69.9333 40.1 71.6C40.7 72.5333 40.8 73.3667 40.4 74.1C39.7333 74.1 39.4 74.3667 39.4 74.9C40.3333 75.6333 40.8667 76.6 41 77.8C41.1333 79 41.2333 80.1667 41.3 81.3C42.3 81.1667 43.0333 81.4 43.5 82C42.4333 82.6 41.5667 82.7 40.9 82.3C40.7667 82.7 40.7667 83.2333 40.9 83.9C41.0333 84.7 41.1 85.2 41.1 85.4C41.1 86.1333 40.8333 86.7 40.3 87.1C40.7 87.1 41.1333 87.2333 41.6 87.5C42.0667 87.7 42.3 87.9333 42.3 88.2C42.9 87.5333 43.3333 87.2 43.6 87.2C44.2667 89.4 45.0667 90.5 46 90.5C46.3333 90.5 46.7 90.3333 47.1 90C47.5 89.6667 47.9 89.5 48.3 89.5C49.0333 89.5 49.4 90 49.4 91C49 91.2 48.7333 91.2667 48.6 91.2C48.4 91.0667 48.4333 90.9 48.7 90.7C47.9667 91.4333 47.2 91.8 46.4 91.8C46.0667 91.8 45.7 91.6667 45.3 91.4C44.9 91.0667 44.5333 90.9 44.2 90.9C43.1333 90.9 42 91.2333 40.8 91.9V94C41.6 94.8 41.9667 95.6 41.9 96.4C41.9 96.2 42.2333 96.1 42.9 96.1C43.8333 96.1 44.5333 96.0333 45 95.9C45.1333 96.0333 45.2333 96.2333 45.3 96.5C45.4333 96.7 45.6 96.8667 45.8 97C44.1333 98.0667 42.9667 98.6 42.3 98.6C41.6333 98.6 41.3 98.4667 41.3 98.2V107.2C41.7667 107.2 42.0667 107.467 42.2 108C42.2 108.4 42.2 109.8 42.2 112.2C43.8 112.333 46.6 112.7 50.6 113.3C54.1333 113.833 56.0667 114.1 56.4 114.1C56.8 114.1 57.1333 114.167 57.4 114.3C57.7333 114.433 58.1 114.5 58.5 114.5C58.9 114.5 59.4333 114.4 60.1 114.2C60.8333 114.067 61.3333 114 61.6 114C61.6 113.733 61.6667 113.233 61.8 112.5C62 111.833 62.1 111.3 62.1 110.9ZM50.2 82.4V81.6H48.6V82.4H50.2ZM46.2 79L44.5 77.3C44.5 77.4333 44.3333 77.6667 44 78C43.7333 78.2667 43.6 78.4667 43.6 78.6C43.9333 78.4 44.3667 78.4 44.9 78.6C45.5667 78.8667 46 79 46.2 79ZM47.9 81.3C47.9 80.4333 47.7333 79.8667 47.4 79.6C47.4 79.6 47 80 46.2 80.8C46.9333 80.8 47.5 80.9667 47.9 81.3ZM160.784 101.1L160.184 102.3L159.584 102L160.184 100.9L160.784 101.1ZM134.384 30.4L133.284 31.5L132.784 31L133.884 29.9L134.384 30.4ZM179.684 113C179.351 113.4 179.184 113.733 179.184 114C173.451 114 168.418 113.933 164.084 113.8C159.751 113.667 157.918 113.6 158.584 113.6C158.184 113.6 157.318 112.167 155.984 109.3C154.651 106.5 153.884 104.567 153.684 103.5C153.618 103.233 153.284 102.667 152.684 101.8C152.151 100.933 151.884 100.167 151.884 99.5C151.884 99.1667 151.918 98.8333 151.984 98.5C151.718 98.2333 151.318 98.2667 150.784 98.6C150.784 98.5333 150.918 98.2667 151.184 97.8C151.451 97.2667 151.584 96.8 151.584 96.4C151.584 96 151.184 95.0333 150.384 93.5C149.118 91.1 148.318 89.5333 147.984 88.8C148.118 88.2 148.218 87.8333 148.284 87.7C148.418 87.5 148.751 87.2667 149.284 87C148.818 86.4 148.084 86.1667 147.084 86.3C147.084 85.1 147.084 84.4333 147.084 84.3C146.951 83.9 146.718 83.3 146.384 82.5C146.384 82.4333 146.418 82.2333 146.484 81.9C146.551 81.5 146.584 81.1667 146.584 80.9C146.584 79.8333 146.018 79.0333 144.884 78.5C144.951 77.7667 144.784 76.5667 144.384 74.9C144.384 74.7667 144.584 74 144.984 72.6C144.518 72.8 144.284 72.5333 144.284 71.8C144.284 67 144.618 64 145.284 62.8C145.818 62 147.684 61 150.884 59.8C153.751 58.6667 155.184 57.4333 155.184 56.1C155.184 53.9 153.551 52.5667 150.284 52.1C149.884 51.8333 149.751 51.3667 149.884 50.7C149.084 50.4333 147.818 50.1667 146.084 49.9C144.351 49.6333 143.018 49.3333 142.084 49C142.084 48.8667 142.418 48.7667 143.084 48.7C143.751 48.5667 144.151 48.4 144.284 48.2C143.884 47.6 143.518 47.3 143.184 47.3L142.084 47.7C141.684 45.7 141.251 42.7667 140.784 38.9C139.851 37.4333 139.384 36.4667 139.384 36H140.784C140.984 35.7333 141.084 35.4 141.084 35C141.084 32.8667 140.484 30.3333 139.284 27.4C139.551 27.4 139.984 27.2333 140.584 26.9C141.184 26.5667 141.651 26.4 141.984 26.4C147.918 26.4 153.018 27.0667 157.284 28.4C157.484 28.8 157.818 29.3 158.284 29.9C160.151 30.8333 161.484 31.5667 162.284 32.1C163.751 33.1 164.584 34.1 164.784 35.1C165.251 35.3 165.784 35.6 166.384 36C166.451 36.2 166.484 36.9667 166.484 38.3C167.151 38.4333 168.018 38.7333 169.084 39.2C170.018 42.1333 170.484 46.1667 170.484 51.3C170.484 55.0333 170.284 58.4333 169.884 61.5C170.151 61.7 170.551 62.0333 171.084 62.5C170.084 63.4333 168.118 64.8667 165.184 66.8C162.318 68.7333 160.351 70.2 159.284 71.2L179.684 113ZM130.484 115.4C128.418 115.4 124.951 115.267 120.084 115C115.951 114.8 112.918 114.733 110.984 114.8L110.284 115.3V99.2C110.818 99.0667 111.684 98.8 112.884 98.4C112.151 98.2667 111.251 98 110.184 97.6C110.184 97.2 110.484 96.7 111.084 96.1C110.818 87.3 110.751 82.7667 110.884 82.5C110.551 81.5 110.318 79.0667 110.184 75.2C110.184 74.0667 109.918 72.1 109.384 69.3C109.518 68.9667 109.718 68.5 109.984 67.9C109.584 63.7667 109.451 61.0667 109.584 59.8C109.451 59.6667 109.251 59.3667 108.984 58.9C109.251 56.5667 109.384 53.5333 109.384 49.8C109.384 48.7333 109.151 47.8333 108.684 47.1C108.884 45.1667 108.984 43.3333 108.984 41.6C108.984 41.3333 108.818 40.9 108.484 40.3C108.218 39.7 108.051 39.2333 107.984 38.9C108.251 37.3 108.284 35.0333 108.084 32.1C107.684 30.9 107.484 29.7667 107.484 28.7C107.951 28.2333 108.584 27.6667 109.384 27C109.718 26.9333 110.418 26.7333 111.484 26.4C112.551 26.0667 113.251 25.9 113.584 25.9C114.051 25.9 114.418 26.0667 114.684 26.4C115.018 26.6667 115.284 26.9333 115.484 27.2C117.418 27.2 120.284 27.3333 124.084 27.6C124.951 27.8 125.551 28.2 125.884 28.8C126.018 29.6667 126.318 38.1667 126.784 54.3C127.051 54.7667 127.318 55.3667 127.584 56.1C127.318 61.9667 127.818 66.8333 129.084 70.7C128.551 71.6333 128.284 73.0667 128.284 75C128.284 75.2667 128.518 77.7667 128.984 82.5C129.051 83.8333 129.184 85.8 129.384 88.4C129.518 89.5333 129.418 90.9 129.084 92.5C128.884 93.5667 128.851 94.6333 128.984 95.7C129.251 97.9667 129.684 101.3 130.284 105.7C130.551 107.833 130.618 111.067 130.484 115.4ZM149.184 33.6C149.184 33.3333 149.018 32.9 148.684 32.3C148.084 32.3 148.251 32.7333 149.184 33.6ZM150.684 46.9L150.384 46.2L149.384 46.8V47.4L150.684 46.9ZM117.084 33.8L116.484 33.1L115.984 33.5L116.584 34.2L117.084 33.8ZM153.784 82.9C152.518 82.9 151.518 82.7 150.784 82.3C150.784 83.1667 151.118 83.6 151.784 83.6C152.651 83.6 153.318 83.3667 153.784 82.9ZM155.984 93.3V92.6H153.884V93.3H155.984ZM256.002 97.7C256.002 98.0333 254.668 99.4 252.002 101.8C251.602 102.133 250.168 103.933 247.702 107.2C245.568 110.067 243.768 111.933 242.302 112.8C240.235 113.667 237.468 114.9 234.002 116.5L231.502 115.9L232.802 114.5C232.602 114.3 232.168 114.2 231.502 114.2C231.502 112.467 231.535 111.667 231.602 111.8C230.868 109.2 230.502 107.4 230.502 106.4C230.502 105.4 230.702 104.3 231.102 103.1C230.702 101.9 230.268 100.333 229.802 98.4C229.135 92.9333 228.802 90.2 228.802 90.2V86.9C229.802 86.3 231.302 85.1667 233.302 83.5C236.035 81.1667 237.402 79.4667 237.402 78.4C237.402 78.0667 237.202 77.7 236.802 77.3C236.402 76.8333 236.168 76.4667 236.102 76.2C235.835 75 236.068 73.7667 236.802 72.5C236.202 69.4333 235.535 64.9 234.802 58.9C235.135 58.7667 235.468 58.4667 235.802 58C235.735 57.5333 235.602 56.7667 235.402 55.7C234.602 51.8333 234.302 48.6667 234.502 46.2C234.235 45.7333 233.868 45.1333 233.402 44.4C233.202 42.8 233.102 40.7667 233.102 38.3C233.168 34.9 233.168 32.8333 233.102 32.1C232.635 31.3 232.402 30.6667 232.402 30.2V27.8C236.202 27.7333 241.002 27.8333 246.802 28.1C247.735 28.7667 248.668 29.1333 249.602 29.2C249.602 30.5333 249.302 31.3333 248.702 31.6C249.502 32.3333 250.068 33.3667 250.402 34.7C251.335 38.5 251.802 43.2333 251.802 48.9C251.802 49.1667 251.935 49.7 252.202 50.5C252.468 51.3 252.635 51.8 252.702 52C253.168 59.6 254.068 70.9667 255.402 86.1C255.468 86.9 255.268 88.1333 254.802 89.8C255.602 92.6667 256.002 95.3 256.002 97.7ZM217.802 107C217.802 109.6 217.768 111.067 217.702 111.4C216.968 113.333 216.168 114.3 215.302 114.3C214.968 114.3 213.968 114.2 212.302 114C210.635 113.867 209.635 113.8 209.302 113.8C209.035 113.8 207.735 113.133 205.402 111.8C203.135 110.533 201.268 109.833 199.802 109.7C199.335 109.3 199.235 108.533 199.502 107.4C199.235 107.4 198.802 107.333 198.202 107.2C197.602 107.067 197.268 107 197.202 107C195.402 104.6 192.468 101.167 188.402 96.7C188.735 94.5 188.102 93 186.502 92.2C186.502 91.8667 186.735 91.4667 187.202 91C187.668 90.4667 187.935 90.0667 188.002 89.8C187.802 88.6667 187.802 88.0333 188.002 87.9C188.202 87.7 188.302 87.5667 188.302 87.5C188.302 87.3667 188.068 85.4 187.602 81.6C187.135 77.7333 186.868 74.8333 186.802 72.9C187.002 72.5 187.302 71.8 187.702 70.8C187.035 69.5333 186.868 67.8667 187.202 65.8C186.402 64.9333 186.002 63.9 186.002 62.7C186.002 61.9667 186.135 61.4667 186.402 61.2C186.535 61.1333 187.035 60.9333 187.902 60.6V58.4C187.835 58.1333 187.535 57.8667 187.002 57.6C186.535 57.3333 186.235 57.0333 186.102 56.7C186.102 55.4333 186.035 53.7333 185.902 51.6C185.835 50.6 185.602 48.9667 185.202 46.7C185.135 46.5 185.202 46.0667 185.402 45.4C185.602 44.6667 185.702 44.1333 185.702 43.8C185.702 42.9333 185.368 42.2333 184.702 41.7V28.5C186.502 28.4333 192.368 28.8 202.302 29.6C202.568 31.2 202.835 34.9 203.102 40.7C203.235 43.1 203.835 47.4667 204.902 53.8C204.968 53.8667 204.768 54.2 204.302 54.8C204.968 60.3333 205.468 67.7333 205.802 77C206.468 78.5333 208.368 80.1333 211.502 81.8C214.702 83.4667 216.402 84.6 216.602 85.2C216.535 87.8 216.702 92.1333 217.102 98.2C217.568 104.267 217.802 107.2 217.802 107ZM240.102 95.9L238.402 95.3V96L239.902 96.5L240.102 95.9ZM201.402 102.8C201.068 102.467 200.902 101.9 200.902 101.1C200.768 101.167 200.068 101.2 198.802 101.2C199.135 101.533 200.002 102.067 201.402 102.8ZM285.95 104.5C284.817 104.1 283.183 103.9 281.05 103.9C281.917 103.5 283.083 102.967 284.55 102.3C285.483 103.233 285.95 103.967 285.95 104.5ZM287.85 106.5C287.05 106.767 285.75 107.167 283.95 107.7C284.15 106.633 284.15 105.8 283.95 105.2C283.75 104.667 283.55 104.567 283.35 104.9C283.15 105.167 283.15 105.733 283.35 106.6C284.083 105.867 284.683 105.5 285.15 105.5C285.617 105.5 286.15 105.667 286.75 106C287.417 106.333 287.783 106.5 287.85 106.5ZM282.55 107.6H281.95L281.35 106.6L282.05 106.3L282.55 107.6ZM285.85 110.9C285.917 110.967 285.95 111.033 285.95 111.1C285.95 111.633 285.683 111.9 285.15 111.9C284.883 111.9 284.75 111.767 284.75 111.5C285.017 111.367 285.383 111.167 285.85 110.9ZM308.05 31.1L307.55 31.5L306.85 30.8L307.35 30.4L308.05 31.1ZM303.85 33.2L303.55 33.8L302.45 33.2L302.65 32.6L303.85 33.2ZM312.95 42.7L312.65 43.4L311.55 42.8L311.75 42.1L312.95 42.7ZM300.65 32.1C298.983 32.1 297.783 31.7333 297.05 31C297.317 31.1333 297.883 31.3333 298.75 31.6C299.683 31.8 300.317 31.9667 300.65 32.1ZM320.15 35.7C320.15 36.1 320.083 36.2667 319.95 36.2C319.683 36.0667 319.483 36.0667 319.35 36.2C319.75 40.3333 319.717 44.6 319.25 49C318.317 49.2 316.983 49.6667 315.25 50.4C315.25 49.5333 314.85 49.1 314.05 49.1C313.583 49.1 313.15 49.2333 312.75 49.5C312.417 49.7667 312.183 49.9 312.05 49.9C312.05 49.7667 311.883 49.5667 311.55 49.3C311.283 48.9667 311.15 48.7 311.15 48.5C310.817 48.3667 310.35 48.4667 309.75 48.8C309.15 49.0667 308.683 49.1333 308.35 49C308.35 48 308.517 47.3667 308.85 47.1C308.383 46.6333 307.917 46.4 307.45 46.4C306.983 46.4 306.55 46.7333 306.15 47.4C305.75 48 305.55 48.5667 305.55 49.1C304.417 48.5667 303.85 47.9 303.85 47.1C303.85 47.0333 303.85 46.9 303.85 46.7C303.85 46.4333 303.85 46.2667 303.85 46.2C303.85 45.4667 303.55 44.8333 302.95 44.3C303.35 43.8333 303.783 43.6 304.25 43.6C304.65 43.6 304.95 43.8 305.15 44.2C305.417 44.8 305.65 45.2333 305.85 45.5C305.917 45.4333 306.017 45.0333 306.15 44.3C306.15 44.2333 306.183 43.9667 306.25 43.5C306.317 43.1667 306.25 43 306.05 43C306.183 43.2 306.35 43.2667 306.55 43.2C306.817 43.0667 307.05 43.0667 307.25 43.2L308.35 42C308.283 41.8 308.083 41.4667 307.75 41C307.483 40.5333 307.35 40.1 307.35 39.7C307.35 39.5 307.383 39.2667 307.45 39C306.717 39 306.317 39.0333 306.25 39.1C306.117 38.8333 306.017 38.8 305.95 39C305.883 39.2667 305.883 39.7333 305.95 40.4C304.75 39.9333 303.883 39.0667 303.35 37.8C304.35 37.8 304.95 37.7 305.15 37.5C304.817 36.7667 303.917 36.4 302.45 36.4C302.183 36.4 302.05 36.4667 302.05 36.6C302.05 36.6 302.083 36.6667 302.15 36.8C302.217 36.9333 302.25 37.0333 302.25 37.1C302.183 37.2333 302.017 37.3 301.75 37.3C301.417 37.3 301.117 37.2333 300.85 37.1C300.65 36.9 300.35 36.8 299.95 36.8C299.55 36.8 299.317 36.7333 299.25 36.6C299.25 36.4667 299.217 36.4 299.15 36.4L298.75 36.7V37.9C299.217 38.3 299.817 38.8333 300.55 39.5C299.817 39.5 299.45 39.3667 299.45 39.1L298.85 39.8C299.517 40.4667 300.15 41.1 300.75 41.7C301.417 42.2333 302.283 42.6667 303.35 43C302.883 43.1333 302.183 43.5 301.25 44.1C300.383 44.6333 299.883 44.9 299.75 44.9C300.15 44.5 300.183 44.0667 299.85 43.6C299.65 43.7333 298.55 43.7 296.55 43.5C297.083 42.8333 297.883 42.7333 298.95 43.2C299.15 43.0667 299.283 42.9 299.35 42.7C299.417 42.4333 299.55 42.2 299.75 42C299.283 41.8 298.517 41.4 297.45 40.8C297.45 36.6667 297.45 34.6 297.45 34.6H299.55L300.45 35.5L301.75 34.1C302.683 34.4333 303.917 35.0333 305.45 35.9C305.65 35.9 306.183 35.5 307.05 34.7V33.5C305.45 32.6333 303.517 31.8667 301.25 31.2C300.983 30.7333 300.483 30.1333 299.75 29.4C300.95 29.0667 302.45 28.4333 304.25 27.5C303.85 27.0333 303.183 26.8 302.25 26.8C301.383 26.8 300.25 27.2333 298.85 28.1C298.717 28.7667 298.65 29.2333 298.65 29.5C298.65 29.3667 298.483 29.0667 298.15 28.6C297.683 29.2667 297.117 29.5667 296.45 29.5C296.45 30.9667 296.617 32.0333 296.95 32.7C293.417 30.9 291.55 30 291.35 30C290.883 30 290.517 30.0667 290.25 30.2C290.05 30.3333 289.917 30.4 289.85 30.4C288.717 29.0667 288.283 27.5667 288.55 25.9C290.95 28.3667 292.317 29.6 292.65 29.6C293.05 29.6 293.417 29.5333 293.75 29.4C294.15 29.2 294.55 29.1 294.95 29.1C296.017 29.1 296.683 29 296.95 28.8C296.683 28.3333 296.083 27.7333 295.15 27C295.35 27 295.85 27.0667 296.65 27.2C297.517 27.2667 298.15 27.3 298.55 27.3C299.017 27.3 299.317 27.1667 299.45 26.9C299.65 26.5667 299.75 26.4 299.75 26.4L300.85 27.3C300.917 27.2333 300.983 27.0667 301.05 26.8C301.117 26.5333 301.35 26.4 301.75 26.4C302.15 26.4 303.517 26.2667 305.85 26C308.183 25.6667 309.55 25.5 309.95 25.5C310.35 25.5 310.717 25.5667 311.05 25.7C311.45 25.8333 311.85 25.9 312.25 25.9C313.383 25.9 315.55 26.2333 318.75 26.9C318.883 27.1667 318.883 27.6333 318.75 28.3C318.483 29.1667 318.35 29.7333 318.35 30C318.35 30.4 318.65 31.3667 319.25 32.9C319.85 34.3667 320.15 35.3 320.15 35.7ZM309.25 45.4C308.85 45.4 308.483 45.5 308.15 45.7C307.817 45.8333 307.617 45.9 307.55 45.9V44.2C307.75 44.2 308.083 44.3667 308.55 44.7C309.017 44.9667 309.25 45.2 309.25 45.4ZM287.05 26.8L286.75 27.4L285.25 26.9V26.2L287.05 26.8ZM286.75 29.8C286.55 30 286.45 30.5 286.45 31.3C285.983 31.3 285.417 30.9333 284.75 30.2C284.883 30.0667 285.217 30 285.75 30C286.283 30 286.617 29.9333 286.75 29.8ZM284.25 28.1C283.917 28.1 283.383 28.4333 282.65 29.1C282.317 28.4333 281.65 27.6333 280.65 26.7L281.75 25.5C281.883 25.5667 282.25 25.9333 282.85 26.6C283.45 27.2 283.917 27.7 284.25 28.1ZM283.35 30.8C282.95 30.8 282.117 30.7667 280.85 30.7C279.517 30.7 278.45 30.7 277.65 30.7C277.783 30.7 278.083 30.5 278.55 30.1C279.083 29.6333 279.483 29.3333 279.75 29.2C279.75 28.8 279.483 28.6 278.95 28.6V25.9C279.95 27.8333 281.417 29.4667 283.35 30.8ZM276.95 26.6L275.35 27.3L274.75 26L276.95 26.6ZM286.05 39.3C285.917 39.4333 285.75 39.4667 285.55 39.4C285.217 39.2 284.85 39.1 284.45 39.1C284.05 39.1 283.783 39.2333 283.65 39.5C283.583 39.7667 283.517 39.9 283.45 39.9C283.45 38.5 283.483 37.8 283.55 37.8C283.883 37.8 284.283 38 284.75 38.4C285.483 38.9333 285.917 39.2333 286.05 39.3ZM273.95 29H273.35L272.75 28L273.35 27.7L273.95 29ZM278.25 33.8H277.05V33H278.25V33.8ZM265.65 47.6L264.55 48.6C264.15 48.6 263.517 48.1667 262.65 47.3C261.983 47.5667 261.017 48 259.75 48.6C260.35 47.5333 260.05 46.7 258.85 46.1C258.917 46.1 259.083 46.1667 259.35 46.3C259.617 46.3667 259.983 46.4 260.45 46.4C260.783 46.4 260.95 46.2667 260.95 46C260.95 45.6667 261.15 45.5 261.55 45.5C263.083 45.5 264.25 45.3333 265.05 45C265.05 45.1333 265.15 45.5333 265.35 46.2C265.55 46.8 265.65 47.2667 265.65 47.6ZM298.85 107C298.85 109.267 298.65 111.3 298.25 113.1C288.783 113.1 282.75 112.933 280.15 112.6C280.35 112.133 280.617 111.5 280.95 110.7C280.283 109.567 280.117 108.2 280.45 106.6C280.25 106.467 279.85 106.2 279.25 105.8C279.25 105.733 279.717 105.233 280.65 104.3C280.117 103.833 279.683 103.6 279.35 103.6C279.483 102.8 279.55 101.867 279.55 100.8C279.55 99 279.283 96.4333 278.75 93.1C278.217 89.7 277.95 87.6667 277.95 87V82.3C279.417 82.3 280.15 82.3 280.15 82.3C279.75 81.9667 279.05 81.3 278.05 80.3C277.85 76.8333 277.717 75.0333 277.65 74.9C277.65 74.7 277.483 74.3667 277.15 73.9C277.15 73.9 277.083 73.6 276.95 73C276.883 72.4 276.883 71.8667 276.95 71.4C277.083 70.9333 277.417 70.5333 277.95 70.2C277.617 70 277.317 69.9 277.05 69.9C277.05 69.9 277.05 69.3667 277.05 68.3C277.05 67.1667 277.05 65.6333 277.05 63.7C277.05 60.9 277.05 57.3333 277.05 53C276.783 52.3333 276.05 51.2333 274.85 49.7C274.183 49.6333 273.117 49.6333 271.65 49.7C269.85 49.8333 268.683 49.9 268.15 49.9C267.083 49.9 265.517 49.7667 263.45 49.5C261.383 49.2333 260.217 49.1 259.95 49.1C259.55 49.1 258.917 49.2667 258.05 49.6C257.25 49.8667 256.683 50 256.35 50C255.95 50 255.483 49.8667 254.95 49.6C254.417 49.2667 254.05 49.0667 253.85 49C254.65 46.7333 254.883 45.2 254.55 44.4C253.817 42.6 253.45 40.4667 253.45 38C253.45 37.2667 253.483 36.2 253.55 34.8C253.683 33.3333 253.75 32.2667 253.75 31.6C253.75 29.8 253.483 28.2333 252.95 26.9C253.417 26.9 254.183 26.7333 255.25 26.4C256.383 26.0667 257.117 25.9 257.45 25.9C256.783 25.9 260.483 26.3667 268.55 27.3C268.95 26.9 268.95 26.5 268.55 26.1L269.75 27.1C269.283 27.3667 268.517 27.8333 267.45 28.5L268.15 29.1C270.083 28.4333 271.05 27.8667 271.05 27.4C271.05 27.1333 270.75 26.8333 270.15 26.5C271.017 26.3667 272.383 26.3667 274.25 26.5C273.717 27.0333 273.183 27.1333 272.65 26.8C271.983 27.4 271.817 28.2667 272.15 29.4C272.483 30.8 272.35 31.9 271.75 32.7C270.55 31.5 269.417 30.9 268.35 30.9C267.95 30.9 267.683 31 267.55 31.2C267.417 31.3333 267.117 31.4 266.65 31.4C266.25 31.4 266.083 31.5 266.15 31.7C266.283 32.3 266.35 32.5 266.35 32.3C266.217 31.6333 265.917 30.7333 265.45 29.6C264.717 30.1333 263.417 31.2667 261.55 33C262.083 33.7333 263.083 34.1 264.55 34.1C265.217 34.1 265.283 33.8333 264.75 33.3C264.95 33.3 265.317 33.5667 265.85 34.1L266.75 33.2C266.883 33.2667 266.917 33.5333 266.85 34C266.85 34.4 267.05 34.6 267.45 34.6C267.783 34.6 267.983 34.5333 268.05 34.4C268.117 34.4 268.117 34.3 268.05 34.1C267.983 33.9 267.95 33.7667 267.95 33.7C268.15 33.7 268.55 34 269.15 34.6C270.083 34.6 270.283 34.3333 269.75 33.8C270.283 33.8 270.983 34.0333 271.85 34.5C273.05 35.1 273.75 35.4333 273.95 35.5C274.083 35.3667 274.25 35 274.45 34.4C274.65 33.7333 274.817 33.3333 274.95 33.2C276.35 34.4 277.483 35 278.35 35C279.417 35 280.083 34.7 280.35 34.1L281.35 35C283.15 34.0667 284.283 33.6 284.75 33.6C285.083 33.6 285.283 33.7667 285.35 34.1C285.483 34.4333 285.717 34.6 286.05 34.6C286.583 34.6 287.017 34.4333 287.35 34.1C287.35 34.7667 287.683 35.1 288.35 35.1C287.683 35.9667 287.617 36.8333 288.15 37.7C288.617 36.5 289.25 34.8333 290.05 32.7C289.717 34.2333 289.717 35.3333 290.05 36C290.917 36 291.35 35.6 291.35 34.8C291.35 34.8 291.683 35.2333 292.35 36.1V40C291.617 38.6 290.517 37.5333 289.05 36.8C288.85 37 288.85 37.2333 289.05 37.5C289.183 37.7 289.383 37.8 289.65 37.8V39.9C288.917 40.3 288.55 40.8667 288.55 41.6C288.55 40.2667 287.883 39.6 286.55 39.6C286.15 39.6 285.483 39.8333 284.55 40.3C283.683 40.7 283.05 40.9 282.65 40.9C282.317 40.9 282.15 40.7667 282.15 40.5C282.15 40.1667 281.95 40 281.55 40C281.083 40 280.75 40.1333 280.55 40.4C280.417 40.6667 280.283 40.8 280.15 40.8C280.35 40.2667 280.583 39.6333 280.85 38.9C281.25 38.7 281.783 38.3667 282.45 37.9C282.583 37.7667 282.483 37.5667 282.15 37.3C280.817 37.8333 279.85 38.5 279.25 39.3C279.583 39.6333 279.883 39.8 280.15 39.8C279.883 40.0667 279.317 40.5667 278.45 41.3C278.45 40.1667 278.317 39.2667 278.05 38.6C277.65 38.6 277.483 39.0333 277.55 39.9C277.683 41.1667 277.75 42.2667 277.75 43.2C277.417 42.8667 276.883 41.8667 276.15 40.2C275.483 38.8667 274.917 38.2 274.45 38.2C274.117 38.2 273.817 38.3333 273.55 38.6C273.55 38.6667 273.583 38.4 273.65 37.8C273.717 37.6 273.55 37.4333 273.15 37.3C272.683 37.9 272.017 38.9333 271.15 40.4C270.617 40.7333 270.217 40.7667 269.95 40.5L268.95 41.4C268.883 41.0667 268.617 40.8 268.15 40.6C267.35 40.2667 266.883 40.0667 266.75 40C266.283 40.5333 266.05 41 266.05 41.4C266.183 41.4 266.35 41.4333 266.55 41.5C266.817 41.5667 267.05 41.6 267.25 41.6C266.45 41.6 265.45 41.9 264.25 42.5C264.383 42.5667 264.75 42.8667 265.35 43.4C265.95 43.8667 266.417 44.1 266.75 44.1C267.15 44.1 267.55 43.9667 267.95 43.7C268.35 43.3667 268.75 43.2 269.15 43.2H271.65C271.717 43.0667 271.517 42.8667 271.05 42.6C270.583 42.2667 270.283 42.0667 270.15 42C270.283 42 270.483 42.1333 270.75 42.4C271.017 42.6 271.35 42.7 271.75 42.7C272.217 42.7 272.417 42.6333 272.35 42.5C272.217 41.8333 272.15 41.6 272.15 41.8C272.283 42.5333 272.683 43.3667 273.35 44.3C273.283 44.7667 272.917 45 272.25 45C270.85 45 269.917 44.5333 269.45 43.6C269.183 43.9333 268.917 44.2333 268.65 44.5L266.95 44.9C268.15 46.1667 269.083 46.8 269.75 46.8C270.083 46.8 270.25 46.7333 270.25 46.6C270.317 46.4667 270.517 46.4 270.85 46.4C271.183 46.4 271.65 46.7 272.25 47.3C272.45 47.1 272.55 46.6667 272.55 46C273.95 46.0667 274.917 45.6 275.45 44.6C275.45 44.7333 275.383 45.0667 275.25 45.6C275.183 45.9333 275.217 46.2 275.35 46.4C276.55 45 277.35 44.1 277.75 43.7V45.5C277.75 45.3 277.583 45 277.25 44.6C277.05 44.7333 276.95 45.0667 276.95 45.6L277.75 46.4C278.55 46.1333 279.783 45.5333 281.45 44.6L280.65 45.7C280.783 45.7667 280.917 45.8 281.05 45.8C281.183 45.8 281.383 45.6667 281.65 45.4C281.983 45.1333 282.35 45 282.75 45C283.217 45 283.45 44.4333 283.45 43.3H286.05C286.05 44.1667 286.283 44.6 286.75 44.6C287.15 44.6 287.317 44.5333 287.25 44.4C287.183 44.2 287.317 44.1 287.65 44.1C288.05 44.1 288.317 44.3333 288.45 44.8C288.65 45.2667 288.917 45.5 289.25 45.5C289.717 45.5 289.983 45.4333 290.05 45.3C290.183 45.1 290.25 45 290.25 45L291.25 45.9C291.517 45.5667 291.65 45.2667 291.65 45C291.85 45.2 292.017 45.5333 292.15 46C292.35 46.4 292.517 46.6667 292.65 46.8C293.183 45.8667 293.15 44.8333 292.55 43.7C293.55 44.9 294.717 45.3667 296.05 45.1C296.05 45.7 296.217 46.1667 296.55 46.5C296.55 46.6333 296.35 46.8333 295.95 47.1C295.617 47.3 295.35 47.5667 295.15 47.9C295.817 48.0333 296.75 48.3333 297.95 48.8C295.483 48.8 294.25 49.4333 294.25 50.7L298.85 107ZM310.45 45.9C310.45 45.4333 310.45 44.7667 310.45 43.9C310.45 42.9667 310.45 42.3667 310.45 42.1C310.45 42.1667 310.25 42.2333 309.85 42.3C309.45 42.3 309.25 42.5333 309.25 43C309.25 43.5333 309.65 44.5 310.45 45.9ZM295.65 35.7C294.85 35.3667 294.35 34.6667 294.15 33.6C294.483 34.4 294.417 35.0333 293.95 35.5C293.417 35.5 293.083 35.6333 292.95 35.9C292.883 36.1 292.883 36.4333 292.95 36.9C293.017 37.3 293.017 37.5333 292.95 37.6C293.083 37.5333 293.517 37.1667 294.25 36.5C294.783 35.9667 295.25 35.7 295.65 35.7ZM303.35 46.1C303.35 45.8333 303.15 45.6 302.75 45.4C301.883 45 300.95 45.3333 299.95 46.4C299.683 46.0667 299.517 45.8333 299.45 45.7C299.65 46.0333 299.717 46.6 299.65 47.4C299.517 48.5333 299.45 49.1 299.45 49.1C299.583 48.9667 299.75 48.6667 299.95 48.2C300.15 47.7333 300.317 47.4333 300.45 47.3C301.05 47.2333 301.783 47.3 302.65 47.5C302.583 47.4333 302.55 47.3667 302.55 47.3C302.55 47.1667 302.683 46.9667 302.95 46.7C303.217 46.4333 303.35 46.2333 303.35 46.1ZM298.65 47.7C298.65 47.3667 298.583 46.8667 298.45 46.2C298.317 45.5333 298.25 45.1333 298.25 45C297.383 45.8667 296.983 46.6 297.05 47.2C297.783 47.2 298.317 47.3667 298.65 47.7ZM295.25 44.1L293.45 43.5V44.2L294.95 44.7L295.25 44.1ZM287.85 38.8V38H286.15V38.8H287.85ZM294.85 48.1L294.35 46H293.65L294.15 48.1H294.85ZM276.25 31.8V30.5H275.45V31.8H276.25ZM289.25 46.6C288.983 46.4667 288.083 46.4 286.55 46.4C286.15 46.4 285.783 46.1667 285.45 45.7C285.183 45.2333 284.85 45 284.45 45C284.05 45 283.683 45.1333 283.35 45.4C283.017 45.6 282.783 45.7 282.65 45.7C283.25 45.7 283.983 45.9667 284.85 46.5C285.783 47.0333 286.417 47.3 286.75 47.3C287.95 47.3 288.783 47.0667 289.25 46.6ZM266.85 27.7L266.25 27.3C266.25 27.5667 266.05 28 265.65 28.6C265.917 28.6 266.25 28.4667 266.65 28.2C267.05 27.8667 267.117 27.7 266.85 27.7ZM276.95 39C276.417 37.9333 275.817 37.4 275.15 37.4C276.217 38.4667 276.817 39 276.95 39ZM283.75 47.6C283.217 47.1333 282.517 46.5667 281.65 45.9V46.9C282.25 47.3667 282.95 47.6 283.75 47.6ZM276.25 43.1L275.65 41.8L275.05 42L275.55 43.1H276.25ZM280.35 46.6L279.65 46.3L278.85 48L279.55 48.2L280.35 46.6ZM269.75 36.8L268.55 36.2L268.35 36.9L269.45 37.4L269.75 36.8ZM278.95 46.7L278.45 46.3L277.35 47.4L277.75 47.8L278.95 46.7ZM271.05 48.3V47.6L268.85 48.1V48.8L271.05 48.3ZM266.65 45.4L266.15 44.1L265.45 44.3L266.05 45.4H266.65ZM263.55 43.9C263.283 43.9 263.183 43.5333 263.25 42.8C263.117 42.8 262.883 43 262.55 43.4C262.217 43.7333 261.95 43.9 261.75 43.9H263.55ZM267.35 48.6C267.35 47.7333 267.15 47.3 266.75 47.3C266.483 47.3 266.117 47.5333 265.65 48C266.383 48 266.95 48.2 267.35 48.6ZM283.45 66.4L283.15 65.8L282.05 66.3V67L283.45 66.4ZM257.35 48.3V47.6H255.25V48.3H257.35ZM408.738 100C405.471 102.733 401.471 105.2 396.738 107.4C392.471 109.267 388.204 111.1 383.937 112.9C383.538 112.567 383.171 112.4 382.838 112.4C382.838 111.933 382.671 111.2 382.338 110.2C382.004 109.267 381.804 108.6 381.738 108.2C381.538 106.667 381.738 104.367 382.338 101.3C382.338 101.167 382.071 100.733 381.538 100C381.338 96.8667 381.171 93.3333 381.038 89.4V85.8C381.704 85.3333 383.971 84.5333 387.838 83.4C390.504 82.6 391.838 81.5 391.838 80.1C391.838 79.7 391.738 79.2333 391.538 78.7L390.538 78H392.038C392.238 77.7333 392.338 77.3333 392.338 76.8C392.338 76.4 392.038 75.4 391.438 73.8C390.904 72.1333 390.471 71.1333 390.138 70.8C390.138 70.4667 390.571 69.8333 391.438 68.9C391.171 68.7 390.904 68.6 390.638 68.6C390.638 68.3333 390.838 67.2333 391.238 65.3C391.704 63.3667 391.938 62.2 391.938 61.8C391.938 61.8 391.738 61.5 391.338 60.9C390.938 60.3 390.738 59.4667 390.738 58.4C390.738 57.6667 390.838 56.8667 391.038 56C389.704 55.0667 388.404 54.6 387.138 54.6C386.538 53.7333 384.938 52.6333 382.338 51.3C378.871 49.5667 376.904 48.5667 376.438 48.3C376.438 47.9667 376.504 47.4667 376.638 46.8C376.838 46.1333 376.971 45.6667 377.038 45.4C376.571 43.6 376.271 41.1 376.138 37.9C375.938 33.5667 375.771 30.9333 375.638 30C375.638 29.8667 375.904 27.0667 376.438 21.6H379.338C381.471 21.5333 384.571 22.5333 388.638 24.6C388.971 24.8 390.004 25.1667 391.738 25.7C392.404 25.9 392.871 26.5 393.138 27.5C393.271 27.3 393.471 27.1333 393.738 27C394.071 26.8667 394.304 26.7333 394.438 26.6C395.038 28.4667 397.438 30.9333 401.638 34C402.171 34.7333 402.938 35.6333 403.938 36.7C403.871 37.9 404.004 39.6667 404.338 42C404.671 44.8 404.871 46.7 404.938 47.7C404.938 49.9 405.104 53.3 405.438 57.9C405.704 62.1 405.838 65.1333 405.838 67C405.838 68.8 405.738 70.3333 405.538 71.6C405.538 73.3333 405.771 74.5667 406.238 75.3C406.638 77.6333 406.638 79.2 406.238 80C407.104 83.4667 407.538 86.7 407.538 89.7C407.538 91.3 407.371 92.4333 407.038 93.1C407.304 93.4333 407.604 93.9 407.938 94.5C407.804 95.6333 408.071 97.4667 408.738 100ZM339.238 25.6L338.938 26.3L337.738 25.7L338.038 25L339.238 25.6ZM367.338 104.7C367.338 106.3 367.004 109.033 366.338 112.9C366.071 112.833 365.604 113.033 364.938 113.5C364.271 114.033 363.804 114.3 363.538 114.3C363.138 114.3 362.738 114.2 362.338 114C362.004 113.867 361.638 113.8 361.238 113.8H360.038C359.504 113.8 359.004 113.533 358.538 113C358.071 112.467 357.838 111.967 357.838 111.5C357.438 111.433 356.938 111.567 356.338 111.9C355.738 112.3 355.238 112.5 354.838 112.5C354.038 112.5 351.304 110.833 346.638 107.5C346.171 107.5 345.971 107.567 346.038 107.7C346.238 108.233 346.338 108.433 346.338 108.3C345.471 107.5 343.838 105.767 341.438 103.1C339.104 100.5 337.304 98.5333 336.038 97.2C336.171 97.0667 336.404 96.7667 336.738 96.3C336.271 91.3 336.104 88 336.238 86.4C336.171 85.9333 335.971 85.3333 335.638 84.6C335.638 84.2667 335.704 83.7333 335.838 83C336.104 82 336.238 81.2667 336.238 80.8C336.504 78.2667 336.071 74.3333 334.938 69C334.938 68.9333 335.071 68.7667 335.338 68.5C335.604 68.2333 335.838 68.0333 336.038 67.9C336.038 67.3 335.771 67.2333 335.238 67.7C335.104 66.9 335.138 64.9667 335.338 61.9C335.538 58.8333 335.538 56.8333 335.338 55.9C335.271 54.2333 334.971 51.6333 334.438 48.1C334.771 47.3 334.938 46.8667 334.938 46.8C334.804 45.7333 334.438 44.1 333.838 41.9C334.371 41.1 334.671 40.1667 334.738 39.1C334.138 38.5667 333.971 37.6 334.238 36.2C334.971 35.9333 336.104 35.1333 337.638 33.8C339.238 32.4667 340.404 31.6333 341.138 31.3C345.071 29.3 351.671 26.9667 360.938 24.3C361.604 31.7 361.938 37.0667 361.938 40.4C361.938 40.4667 361.838 42.4 361.638 46.2C361.504 50 361.438 52.8333 361.438 54.7C359.838 55.1667 357.538 55.7 354.538 56.3C353.004 57.3667 352.038 58.5667 351.638 59.9C351.504 60.3667 351.438 61.5333 351.438 63.4C351.438 63.6 351.604 66.0333 351.938 70.7C352.204 75.5667 352.371 78.7667 352.438 80.3C353.238 80.7667 354.371 81.8 355.838 83.4C357.304 84.9333 358.371 85.9667 359.038 86.5C360.438 87.4333 363.038 88.8333 366.838 90.7C366.838 91.3667 366.604 92.0333 366.138 92.7C366.938 95.7667 367.338 99.7667 367.338 104.7ZM392.538 33.8C393.004 33 392.871 32.2667 392.138 31.6C391.538 31.8667 390.671 32 389.538 32L388.538 31.1C387.738 31.8333 387.038 32.2 386.438 32.2C388.304 32.6667 390.171 32.9 392.038 32.9C392.304 33.1667 392.471 33.4667 392.538 33.8ZM387.938 31.2L387.238 30.5L386.738 31L387.438 31.7L387.938 31.2ZM393.538 51.1C393.538 50.5667 393.204 49.9667 392.538 49.3L391.938 51C393.004 51 393.538 51.0333 393.538 51.1ZM396.838 76C396.838 75.6667 396.438 75.1 395.638 74.3C395.638 75.6333 395.604 76.3333 395.538 76.4C395.804 76.4 396.238 76.2667 396.838 76ZM349.738 41.9V40.7H349.038V41.9H349.738Z" fill="black"/>
</svg>
